# xmcd
#
# Track frame offsets:
#	150
#	14705
#	29335
#	45180
#	58252
#	75342
#	90465
#	104087
#	115612
#	130235
#	146415
#	160205
#	174075
#	186427
#	202367
#	215580
#	230927
#	247040
#	262510
#	276265
#	288750
#	304260
#	315867
#	329160
#
# Disc length: 4576
#
# Revision: 2
# Processed by: cddbd v1.5.1PL0 Copyright (c) Steve Scherf et al.
# Submitted via: CDex 1.50
# Normalized: r0:DSETVAR1,TDELIM( - );r1:TSWAP
#
DISCID=5d11de18
DTITLE=Various Artist - Steppin' Country 3
DYEAR=2000
DGENRE=Country
TTITLE0=Montgomery Gentry - Hillbilly Shoes
TTITLE1=Dolly Parton - More Where That Came From
TTITLE2=Collin Raye, Joe Diffie - Honky Tonk Heroes (Like Me)
TTITLE3=Joy Lynn White - Tonight The Heartache's On Me
TTITLE4=Rodney Crowell - Lovin' All Night
TTITLE5=The Kinleys - Dance In The Boat
TTITLE6=James Bonamy - Heartbreak School
TTITLE7=Patty Loveless - Wine, Women And Song
TTITLE8=Montgomery Gentry - I've Loved A Lot More Than I've Hurt
TTITLE9=The Charlie Daniels Band - The Devil Went Down To Georgia
TTITLE10=Deryl Dodd - Friends Don't Drive Friends
TTITLE11=The Kinleys - Love Rules
TTITLE12=Rick Trevino - City Lights
TTITLE13=Wade Hayes - Don't Make Me Come To Tulsa
TTITLE14=Patty Loveless - Can't Get Enough
TTITLE15=Ricochet - The Last Love In This Town
TTITLE16=Wade Hayes - She's Actin' Single (I'm Drinkin' Doubles)
TTITLE17=Bobbie Cryner - Daddy Laid The Blues On Me
TTITLE18=Sons Of The Desert - Whatever Comes First
TTITLE19=Deryl Dodd - It's Only 'cause You're Lonely
TTITLE20=Ricky Van Shelton - I'm A Simple Man
TTITLE21=Rick Trevino - I Want A Girl In A Pick-Up Truck
TTITLE22=Stacy Dean Campbell - Honey I Do
TTITLE23=Joe Diffie - Down In A Ditch
EXTD=YEAR: 2000
EXTT0=
EXTT1=
EXTT2=
EXTT3=
EXTT4=
EXTT5=
EXTT6=
EXTT7=
EXTT8=
EXTT9=
EXTT10=
EXTT11=
EXTT12=
EXTT13=
EXTT14=
EXTT15=
EXTT16=
EXTT17=
EXTT18=
EXTT19=
EXTT20=
EXTT21=
EXTT22=
EXTT23=
PLAYORDER=
